<svg xmlns="http://www.w3.org/2000/svg" width="115" height="59" viewBox="0 0 115 59">
  <g fill="none" fill-rule="evenodd">
    <path fill="#FA481C" d="M85.947 13.67s.373-3.813-4.11-3.813c-4.298 0-3.831 3.813-3.831 3.813h7.94zm-4.11-9.671c15.787.186 13.265 14.413 13.265 14.413H78.286v4.743h-6.913s-2.803-2.511-2.803-7.626C68.664 3.813 81.37 4 81.836 4zM62.216 0h-9.341v4.464h-3.924v5.765h3.924v7.625c0 1.674 0 2.976 1.214 4.278 1.028 1.116 2.43 1.023 4.11 1.023h4.111V10.229h5.605V4.464h-5.605V0h-.093zM43.255 4.092c-3.083.465-4.204 2.975-4.204 2.975V4.464h-8.688v18.69h9.528v-8.926c0-1.581.468-2.325 1.028-2.883.654-.651 1.775-1.116 3.083-1.116h2.71V4.464c-.094 0-1.402-.651-3.457-.372zm-28.587-.186c5.325 0 11.864 1.487 11.864 6.695v12.554H17.19V17.76s-2.242.837-4.017 1.302c-1.214.28-2.055 1.023-2.148 2.139-.094 1.023 1.027 1.953 1.027 1.953H2.896S.841 22.41.934 20.272c.187-4.185 3.457-5.672 11.397-6.602 4.298-.558 4.765-.93 4.765-2.046 0-.93-.56-1.86-2.99-1.953-3.55 0-3.27 2.418-3.27 2.325H1.963c0 .093.093-8.09 12.705-8.09z"/>
    <path fill="#F6B63D" d="M52.876 59.05L48.11 44.263h-4.857v-2.418h6.632l3.27 10.136L66.422 20.55l9.248 21.295h4.952v2.418h-6.633L66.422 26.78z"/>
    <path fill="#F6B63D" d="M52.315 39.8l-3.456-4.928h-3.083V39.8h-2.522V25.758h6.259c3.27 0 5.231 1.674 5.231 4.464 0 2.325-1.401 3.72-3.363 4.278l3.83 5.3h-2.896zM49.42 27.99h-3.643v4.743h3.643c1.775 0 2.896-.93 2.896-2.418s-1.12-2.325-2.896-2.325zM83.331 39.8h-5.232V25.758h5.232c4.484 0 7.473 3.07 7.473 6.975 0 3.998-3.082 7.067-7.473 7.067zm0-11.81h-2.803v9.578h2.803c2.99 0 4.858-1.952 4.858-4.742S86.32 27.99 83.33 27.99zM94.261 25.48h2.522V39.52h-2.522V25.48zm13.36 14.32c-4.298 0-7.381-3.255-7.381-7.253 0-3.999 3.083-7.253 7.38-7.253s7.38 3.254 7.38 7.253c.094 3.905-2.99 7.253-7.38 7.253zm0-12.275c-2.804 0-4.765 2.232-4.765 5.022s1.961 5.021 4.764 5.021 4.765-2.231 4.765-5.021c.093-2.79-1.962-5.022-4.765-5.022z"/>
  </g>
</svg>
